<svg preserveAspectRatio="none" overflow="visible" style="display: block;" width="24" height="24" viewBox="0 0 24 24" fill="none" xmlns="http://www.w3.org/2000/svg">
<g id="calendar">
<path id="Shape" fill-rule="evenodd" clip-rule="evenodd" d="M8.75 4C8.75 3.58579 8.41421 3.25 8 3.25C7.58579 3.25 7.25 3.58579 7.25 4V5H6C4.34315 5 3 6.34315 3 8V18C3 19.6569 4.34315 21 6 21H18C19.6569 21 21 19.6569 21 18V8C21 6.34315 19.6569 5 18 5H16.75V4C16.75 3.58579 16.4142 3.25 16 3.25C15.5858 3.25 15.25 3.58579 15.25 4V5H8.75V4ZM18 6.5H6C5.17157 6.5 4.5 7.17157 4.5 8V9.5H19.5V8C19.5 7.17157 18.8284 6.5 18 6.5ZM4.5 18V11H19.5V18C19.5 18.8284 18.8284 19.5 18 19.5H6C5.17157 19.5 4.5 18.8284 4.5 18Z" fill="white" fill-opacity="0.61"/>
</g>
</svg>
